<svg version="1.0" xmlns="http://www.w3.org/2000/svg"
 width="1916.000000pt" height="1916.000000pt" viewBox="0 0 1916.000000 1916.000000"
 preserveAspectRatio="xMidYMid meet">
<metadata>
Created by potrace 1.16, written by Peter Selinger 2001-2019
</metadata>
<g transform="translate(0.000000,1916.000000) scale(0.100000,-0.100000)"
fill="#000000" stroke="none">
<path d="M8844 17429 c-10 -3 -53 -21 -94 -38 -41 -17 -95 -37 -120 -44 -25
-8 -85 -37 -132 -65 -48 -28 -106 -57 -130 -66 -100 -35 -176 -68 -238 -106
-36 -22 -69 -40 -73 -40 -3 0 -36 -22 -72 -50 -58 -44 -72 -50 -114 -50 -52 0
-61 -10 -61 -71 0 -15 -11 -36 -27 -51 -31 -29 -104 -68 -127 -68 -20 0 -124
-117 -122 -137 1 -12 -8 -18 -29 -20 -16 -1 -31 -7 -33 -13 -2 -5 -9 -10 -16
-10 -7 0 -27 -18 -44 -39 -25 -31 -32 -49 -32 -83 0 -80 -35 -147 -78 -148 -7
0 -17 -12 -23 -27 -28 -78 -60 -114 -72 -80 -6 20 13 80 34 103 44 48 8 87
-41 44 -26 -22 -29 -23 -48 -11 -11 7 -11 12 -2 28 8 12 10 33 6 56 -5 29 -13
38 -42 47 -49 17 -69 58 -58 124 13 82 7 182 -16 257 -17 57 -27 73 -53 89
-42 26 -54 25 -98 -6 -22 -15 -54 -27 -79 -28 -26 -2 -50 -11 -63 -25 -19 -19
-20 -22 -5 -33 9 -7 20 -30 23 -50 6 -32 4 -38 -10 -38 -12 0 -15 -5 -11 -16
3 -9 6 -28 7 -42 l0 -27 17 25 c25 36 70 80 81 80 6 0 18 -11 27 -25 14 -22
15 -43 9 -152 -4 -70 -11 -139 -17 -152 -5 -13 -9 -52 -9 -87 -1 -72 -15 -86
-51 -49 -13 14 -28 25 -34 25 -21 0 -71 60 -83 99 -7 24 -18 41 -26 41 -8 0
-15 4 -15 10 0 5 6 7 13 4 18 -6 31 11 45 62 14 47 15 64 4 48 -4 -7 -24 -19
-45 -27 -33 -14 -37 -19 -31 -42 5 -21 3 -25 -15 -25 -11 0 -25 10 -32 21 -6
12 -14 18 -18 13 -3 -5 -15 -14 -25 -20 -35 -19 -41 -39 -25 -86 7 -23 13 -46
11 -50 -1 -5 -8 -50 -15 -100 -18 -123 -12 -198 16 -220 20 -15 20 -18 5 -35
-17 -19 -13 -71 14 -183 6 -25 11 -76 11 -115 1 -70 1 -70 -27 -73 -16 -2 -33
1 -39 7 -6 6 -20 11 -32 11 -27 0 -30 -36 -4 -53 20 -12 26 -37 10 -37 -6 0
-17 10 -26 23 -13 19 -17 20 -25 7 -13 -21 -12 -30 4 -36 20 -8 57 -80 50 -98
-3 -8 -20 -16 -37 -18 -40 -4 -37 -17 11 -44 40 -22 52 -55 31 -80 -19 -23
-176 -9 -206 18 -24 22 -35 19 -70 -23 -24 -28 -25 -28 -178 -45 -53 -6 -55
-6 -185 -1 -88 3 -150 24 -150 51 0 16 -42 46 -65 46 -22 0 -19 -20 7 -48 22
-23 22 -24 4 -34 -18 -10 -18 -11 3 -22 21 -11 20 -13 -24 -56 -37 -36 -50
-43 -80 -42 -45 2 -38 -10 19 -32 l45 -17 -20 -22 c-19 -21 -21 -21 -52 -4
-53 27 -79 29 -115 7 -18 -11 -37 -31 -44 -45 -6 -13 -20 -27 -31 -31 -10 -3
-35 -17 -54 -30 -28 -19 -49 -24 -98 -24 -49 0 -68 -5 -90 -22 -18 -14 -47
-23 -81 -26 -59 -5 -90 -26 -54 -37 11 -4 33 -4 49 0 49 11 96 -17 120 -69 11
-25 26 -46 32 -46 7 0 26 12 41 27 16 15 28 21 28 14 0 -11 3 -11 16 0 14 12
14 14 -5 21 -12 4 -21 16 -21 28 0 16 6 20 34 20 19 0 38 -4 41 -10 10 -16 82
-35 178 -46 37 -5 47 -10 47 -24 0 -10 -9 -21 -20 -25 -11 -3 -41 -29 -67 -57
-27 -27 -60 -56 -74 -64 -15 -7 -30 -24 -33 -36 -4 -13 -38 -50 -77 -83 -38
-33 -85 -83 -104 -111 -46 -68 -148 -164 -174 -164 -12 0 -25 -11 -33 -27 -14
-29 -22 -34 -90 -58 -39 -14 -48 -21 -54 -48 -3 -18 -15 -49 -26 -70 -21 -43
-18 -67 9 -67 24 0 93 67 93 90 0 5 12 10 28 10 24 -1 25 -2 10 -14 -16 -12
-37 -76 -26 -76 13 0 60 49 55 57 -9 14 41 63 65 63 19 0 20 -4 14 -47 -4 -27
-7 -59 -7 -72 1 -13 -10 -39 -24 -57 -29 -38 -30 -44 -10 -44 19 0 19 -13 0
-50 -11 -21 -23 -30 -40 -30 -27 0 -32 18 -15 50 8 15 6 20 -9 25 -21 6 -51
-3 -51 -16 0 -5 9 -9 20 -9 11 0 20 -4 20 -9 0 -15 -18 -23 -25 -11 -7 12 -65
-52 -65 -71 0 -8 18 -22 41 -32 23 -10 43 -27 46 -37 4 -15 13 -19 37 -17 29
2 31 0 31 -32 0 -39 -23 -55 -32 -22 -6 24 -28 28 -37 6 -3 -9 0 -15 9 -15 24
0 17 -25 -16 -61 l-30 -32 21 -29 c40 -54 50 -113 47 -274 -2 -123 1 -154 14
-179 34 -61 44 -113 31 -161 -7 -24 -12 -55 -12 -68 0 -14 -15 -53 -34 -89
-23 -42 -33 -73 -29 -88 6 -30 36 -89 44 -89 16 0 88 -121 101 -170 20 -74 17
-177 -6 -212 -11 -17 -15 -35 -11 -49 4 -12 2 -31 -4 -43 -20 -40 -54 -141
-57 -171 -15 -147 -25 -297 -20 -303 4 -3 11 0 15 7 12 18 31 5 31 -21 0 -11
-8 -22 -20 -25 -39 -10 -17 -113 24 -113 11 0 30 -12 41 -27 l22 -26 22 22 23
23 23 -22 c23 -21 23 -26 18 -129 -5 -85 -3 -113 10 -137 21 -41 20 -118 -3
-146 -10 -13 -32 -49 -49 -82 -18 -32 -45 -72 -61 -89 -21 -22 -26 -34 -17
-39 17 -11 61 -10 72 1 6 5 28 11 50 13 36 3 40 1 48 -29 15 -49 4 -63 -46
-63 -24 0 -52 -7 -63 -15 -10 -8 -31 -15 -45 -15 -14 0 -34 -9 -44 -20 -10
-11 -26 -20 -35 -20 -25 0 -41 -23 -38 -56 1 -16 -4 -39 -10 -51 -9 -15 -9
-36 -2 -74 6 -28 10 -75 10 -103 1 -53 28 -151 56 -195 9 -15 31 -40 50 -56
24 -22 36 -42 41 -70 3 -22 21 -62 40 -90 18 -27 33 -55 33 -61 0 -22 52 -140
72 -160 10 -12 32 -48 48 -80 15 -33 60 -95 100 -139 40 -44 91 -105 114 -135
69 -90 91 -69 61 60 -18 79 -50 164 -72 191 -8 10 -13 46 -13 100 0 85 0 85
-37 122 l-38 36 1 98 c1 62 6 99 13 101 6 2 11 14 11 27 0 29 15 41 61 48 31
5 41 1 65 -24 15 -16 37 -32 48 -35 12 -4 31 -15 44 -25 13 -10 30 -15 38 -12
8 3 14 -1 14 -9 0 -21 49 -68 71 -68 40 0 141 -91 164 -147 8 -20 15 -44 15
-55 0 -11 9 -31 20 -45 24 -31 26 -79 3 -91 -15 -9 -15 -13 -2 -41 12 -24 13
-45 6 -106 -11 -88 1 -132 39 -141 17 -4 24 -13 24 -30 0 -40 21 -73 49 -76
22 -3 26 -7 23 -33 -3 -30 30 -119 47 -130 5 -3 7 -13 4 -24 -5 -21 42 -128
59 -133 12 -4 38 -137 30 -151 -7 -14 -85 -44 -163 -62 -41 -10 -80 -22 -86
-28 -18 -13 -16 -46 2 -53 22 -9 19 -45 -5 -51 -11 -3 -20 -11 -20 -18 0 -19
115 -135 134 -135 9 0 28 -12 41 -26 19 -21 31 -25 54 -21 16 3 35 1 43 -6 25
-20 58 -74 58 -93 0 -10 16 -51 36 -91 26 -51 47 -78 70 -92 19 -11 34 -25 34
-30 0 -6 35 -35 79 -66 43 -30 84 -62 91 -70 13 -16 40 -21 40 -7 -1 28 -49
129 -86 177 -29 39 -59 121 -78 214 -9 41 -22 81 -31 91 -8 9 -15 21 -15 27 0
6 -10 33 -21 60 -12 26 -25 64 -30 83 -4 19 -19 69 -34 110 -14 41 -28 93 -32
115 -3 22 -12 49 -18 60 -7 11 -13 36 -13 55 -1 31 -12 67 -47 145 -8 17 -17
75 -20 130 -6 90 -11 127 -32 244 -3 19 -19 60 -34 90 -16 31 -29 66 -29 79 0
13 -7 36 -15 53 -35 66 -63 183 -90 374 -7 50 -21 110 -30 135 -10 25 -21 92
-26 150 -22 255 -28 338 -24 375 22 206 31 265 57 365 29 114 49 182 73 250
29 81 65 199 65 214 0 9 4 24 9 34 5 9 14 34 20 55 19 57 58 111 96 132 19 10
35 26 35 35 0 10 12 26 26 36 52 39 178 251 262 444 20 46 134 170 156 170 6
0 23 12 37 28 14 15 34 32 44 38 11 6 24 20 30 32 5 12 23 26 40 33 16 6 52
20 78 32 39 17 69 21 165 21 64 1 149 -5 189 -12 76 -14 113 -6 113 23 0 8 8
15 18 15 10 0 27 7 40 15 12 9 36 15 54 13 56 -4 140 13 134 28 -3 9 0 11 11
7 12 -5 14 -3 8 7 -6 10 -4 12 9 7 10 -4 24 -7 32 -7 9 0 14 -11 14 -31 0 -29
2 -31 29 -26 20 4 33 1 42 -9 20 -24 97 -55 147 -59 71 -5 142 -21 154 -33 18
-18 43 -14 63 8 14 16 16 23 7 32 -31 31 0 38 38 8 49 -38 67 -21 25 24 -27
30 -24 51 6 43 23 -6 24 6 4 37 -19 28 -97 60 -128 52 -11 -3 -26 -1 -33 5
-22 18 -120 38 -162 32 -39 -5 -172 27 -195 47 -11 9 -146 1 -172 -10 -11 -5
-59 -11 -106 -13 -55 -3 -95 -10 -110 -20 -22 -15 -30 -15 -82 -1 -53 14 -66
13 -135 -2 -42 -9 -88 -25 -102 -34 -14 -10 -53 -31 -88 -49 -35 -17 -75 -40
-89 -51 -14 -11 -31 -20 -38 -20 -7 0 -24 -11 -38 -24 -15 -14 -37 -28 -49
-32 -13 -4 -37 -18 -55 -31 -36 -28 -53 -24 -53 13 0 14 -7 41 -15 61 -20 47
-19 70 4 99 11 13 17 32 14 42 -2 10 7 39 20 63 13 24 28 55 32 67 4 13 16 34
26 45 11 12 26 29 33 37 8 8 22 38 31 67 9 29 23 57 30 63 8 6 11 18 8 27 -3
8 -1 18 5 22 6 4 12 22 13 41 2 19 8 47 15 61 11 21 10 33 -4 72 -15 43 -15
47 2 66 20 22 14 43 -9 34 -20 -7 -19 26 0 91 16 52 13 68 -10 59 -12 -4 -15
3 -15 30 0 30 4 36 28 42 15 4 21 10 15 12 -17 6 -17 38 0 51 16 14 20 61 7
78 -8 8 -8 14 0 19 14 8 13 68 -2 100 -9 20 -9 31 -1 44 6 10 10 30 9 44 -4
31 26 67 54 67 25 0 25 6 0 58 -11 22 -20 45 -20 49 0 4 16 19 36 33 19 14 48
35 64 48 15 12 33 22 39 22 6 0 11 11 11 24 0 13 8 27 17 30 12 5 14 9 6 14
-9 5 -6 17 9 40 20 32 43 42 50 22 2 -7 11 -5 23 4 20 15 20 15 0 16 -22 1
-65 32 -65 48 0 15 42 23 57 11 6 -6 16 -8 21 -5 5 3 15 -10 22 -29 8 -19 20
-35 27 -35 8 0 11 5 8 10 -4 6 5 24 19 41 28 33 39 25 35 -22 -1 -13 -1 -42
-1 -63 3 -66 15 -31 18 50 2 50 8 84 19 100 10 16 14 35 11 50 -7 25 19 94 34
94 4 0 10 10 14 23 7 28 52 77 71 77 8 0 15 4 15 9 0 5 10 11 21 14 16 4 20
11 15 24 -6 14 -5 16 5 6 19 -19 95 -16 126 4 36 24 93 45 118 45 11 0 91 -3
177 -7 132 -6 161 -5 185 9 15 8 71 20 123 26 154 18 174 22 195 35 11 7 39
16 62 20 37 6 46 3 68 -19 31 -31 39 -33 32 -6 -3 10 1 24 9 31 8 6 14 7 14 3
0 -13 73 -34 85 -24 6 5 17 -7 29 -31 15 -31 26 -40 54 -45 22 -4 37 -2 41 5
9 14 41 4 41 -14 0 -17 19 -32 52 -40 23 -6 26 -4 21 14 -4 17 -1 21 21 21 16
0 26 -5 26 -15 0 -8 -4 -15 -8 -15 -11 0 -62 -78 -62 -95 0 -28 21 -26 47 4
33 37 70 41 75 9 3 -21 8 -23 68 -24 71 0 110 -15 110 -42 0 -10 7 -28 17 -41
9 -13 16 -40 15 -61 -1 -21 5 -53 12 -72 8 -18 12 -44 10 -58 -3 -14 0 -32 6
-40 9 -13 11 -13 20 0 5 8 7 22 4 32 -7 23 13 32 24 11 5 -10 12 -60 16 -111
7 -103 11 -118 30 -103 9 7 19 6 34 -5 20 -14 22 -14 22 1 0 9 -7 23 -15 31
-19 19 -19 34 -1 34 8 0 24 -17 37 -37 12 -21 30 -49 38 -63 9 -14 25 -39 35
-55 19 -31 59 -64 147 -120 26 -16 59 -39 75 -50 23 -16 44 -20 120 -20 89 0
132 -13 118 -36 -7 -12 35 -27 58 -21 15 3 16 7 7 19 -21 25 4 37 58 27 55
-10 60 -24 13 -39 -28 -8 -31 -13 -26 -37 5 -23 1 -29 -19 -34 -14 -3 -35 -4
-47 -1 -13 2 -34 1 -48 -2 -20 -6 -24 -12 -22 -34 2 -15 -1 -27 -7 -27 -12 0
-25 20 -26 40 0 20 -59 25 -107 9 -31 -10 -42 -9 -71 5 -19 9 -37 23 -41 31
-4 11 -21 15 -63 15 -50 0 -55 -2 -43 -15 24 -23 93 -60 216 -116 56 -26 126
-24 217 5 42 13 91 27 109 31 18 4 42 13 53 20 11 7 39 16 62 20 23 4 53 14
65 24 37 27 96 43 130 36 17 -4 56 -9 86 -10 30 -2 58 -9 62 -15 5 -8 25 -10
61 -6 73 8 245 -16 241 -33 -1 -7 3 -11 10 -9 7 3 13 14 13 26 1 35 13 36 45
3 17 -17 37 -31 44 -31 9 0 13 -19 14 -63 1 -64 -4 -82 -25 -82 -7 0 -12 -4
-10 -10 1 -5 10 -9 20 -8 11 2 17 -4 17 -17 0 -12 -5 -17 -14 -14 -8 3 -17 1
-20 -5 -9 -14 -56 8 -56 26 0 7 -7 13 -15 13 -8 0 -15 -7 -15 -15 0 -8 -5 -15
-11 -15 -6 0 -8 7 -5 15 3 8 9 22 12 30 4 10 0 15 -10 15 -8 0 -18 -11 -22
-25 -5 -19 -9 -23 -19 -15 -9 8 -17 6 -29 -5 -9 -9 -20 -13 -26 -10 -5 3 -10
2 -10 -4 0 -14 32 -29 48 -24 8 3 16 -4 19 -16 3 -13 12 -20 22 -19 12 2 17
-6 19 -32 2 -19 15 -50 28 -68 25 -33 25 -52 -2 -52 -15 0 -17 -12 -8 -47 8
-29 44 -31 44 -4 0 26 29 35 50 16 9 -8 20 -12 23 -8 4 3 7 2 7 -4 0 -6 -13
-13 -29 -16 -27 -6 -28 -8 -24 -49 3 -23 7 -45 9 -47 3 -3 22 -4 44 -3 30 2
40 -1 40 -12 0 -8 -9 -18 -21 -21 -16 -5 -18 -10 -9 -20 15 -18 51 1 43 22 -6
16 1 16 45 1 29 -11 35 -10 46 4 10 14 19 16 44 8 26 -7 40 -4 78 17 33 19 42
28 32 34 -10 7 -9 9 5 9 9 0 17 5 17 10 0 13 52 1 62 -13 7 -12 -1 -39 -11
-33 -4 3 -13 1 -20 -4 -18 -10 38 -37 98 -48 51 -8 84 -49 65 -80 -9 -14 -8
-23 2 -37 8 -11 12 -25 10 -32 -4 -9 4 -13 22 -13 15 0 34 -5 42 -10 13 -8 13
-11 -1 -25 -13 -13 -14 -21 -5 -41 6 -13 18 -23 26 -21 9 1 16 -8 18 -23 3
-21 2 -22 -12 -11 -18 15 -21 4 -6 -19 10 -16 -14 -50 -34 -50 -6 0 -4 5 4 11
11 8 12 12 3 16 -36 14 -39 -33 -5 -69 20 -21 22 -28 10 -28 -14 0 -28 -19
-28 -39 0 -5 12 -6 26 -3 20 4 25 1 22 -9 -8 -22 -78 -11 -113 19 -25 21 -30
22 -33 8 -2 -9 -7 -16 -12 -16 -19 0 -181 100 -221 137 -21 19 -40 24 -106 29
-68 4 -81 3 -87 -11 -3 -9 -11 -15 -18 -14 -7 1 -20 -1 -30 -5 -9 -4 -37 0
-62 8 -60 21 -73 20 -81 -3 -3 -11 -18 -22 -33 -26 -28 -6 -187 1 -233 11 -30
6 -158 -13 -174 -26 -6 -5 -31 -11 -56 -13 -25 -2 -50 -6 -55 -9 -5 -3 -23 -9
-40 -12 -18 -4 -40 -16 -50 -27 -9 -10 -30 -19 -46 -19 -43 0 -112 -35 -151
-76 -24 -26 -40 -35 -52 -30 -16 6 -16 8 -1 29 26 35 29 48 18 59 -17 17 -39
3 -78 -52 -28 -39 -42 -50 -63 -50 -28 0 -53 -20 -64 -52 -4 -10 -11 -18 -17
-18 -5 0 -10 -9 -10 -21 0 -21 0 -21 19 2 l19 24 11 -27 c10 -26 41 -40 41
-18 0 6 7 10 15 10 9 0 25 9 37 19 24 23 48 18 41 -10 -6 -20 11 -27 22 -8 13
20 175 -11 175 -33 0 -5 10 -8 22 -8 12 0 18 3 14 7 -8 8 65 32 77 25 5 -2 -1
-13 -13 -24 -27 -25 -14 -43 21 -29 l24 10 -24 0 c-35 1 -21 10 23 16 21 2 44
10 52 16 10 8 18 8 27 1 7 -6 24 -8 38 -5 33 9 92 44 103 61 6 11 10 12 16 2
6 -10 35 -9 136 5 71 10 143 19 159 21 17 2 58 8 92 14 34 5 81 9 105 9 24 -1
53 3 65 9 32 17 118 15 133 -3 7 -8 18 -15 25 -15 7 0 44 -14 82 -31 58 -26
75 -30 119 -24 52 6 70 1 147 -41 19 -11 32 -13 39 -6 6 6 19 5 37 -4 23 -11
27 -19 23 -39 -3 -21 4 -34 38 -65 24 -22 51 -40 60 -40 10 0 30 -16 44 -35
15 -19 40 -49 57 -67 48 -52 119 -145 119 -157 0 -6 3 -11 8 -11 4 0 18 -17
31 -38 13 -20 35 -53 47 -72 13 -19 25 -45 27 -57 2 -12 11 -31 21 -42 12 -14
17 -32 15 -63 -2 -29 1 -42 9 -41 7 2 12 -3 12 -10 0 -8 14 -34 32 -58 18 -25
33 -60 35 -81 4 -41 42 -115 73 -143 21 -19 29 -62 8 -49 -7 4 -8 3 -4 -5 4
-6 11 -9 15 -7 4 3 18 -13 31 -35 14 -22 30 -37 37 -34 8 2 13 -4 13 -15 0
-10 7 -23 15 -27 8 -5 16 -18 18 -31 2 -12 13 -33 25 -47 12 -14 21 -33 20
-42 -3 -34 15 -82 32 -88 10 -3 23 -19 30 -35 7 -17 16 -30 21 -30 4 0 11 -21
15 -46 3 -25 15 -54 26 -64 16 -14 19 -29 16 -78 -1 -33 2 -65 9 -73 17 -21
27 -76 29 -164 1 -44 5 -99 8 -123 4 -30 1 -50 -10 -67 -10 -16 -12 -25 -4
-30 13 -8 4 -66 -17 -114 -9 -19 -13 -46 -9 -62 5 -24 2 -29 -14 -29 -11 0
-20 -4 -20 -10 0 -5 7 -10 16 -10 12 0 15 -6 10 -22 -4 -13 -12 -47 -18 -75
-7 -30 -18 -53 -25 -53 -7 0 -20 -14 -29 -32 -17 -32 -78 -98 -92 -98 -21 -1
-52 -41 -52 -68 0 -16 -9 -40 -20 -54 -18 -23 -18 -27 -3 -48 13 -18 14 -26 4
-42 -7 -11 -16 -53 -21 -94 -6 -55 -13 -79 -26 -89 -17 -13 -17 -16 -4 -25 8
-5 10 -10 5 -10 -6 0 -19 -14 -29 -31 -14 -23 -15 -33 -7 -39 8 -5 4 -12 -14
-24 -19 -13 -24 -21 -16 -30 8 -9 3 -21 -18 -43 -21 -23 -27 -39 -24 -57 4
-21 2 -26 -16 -26 -25 0 -28 -18 -5 -27 9 -3 20 0 25 8 6 11 9 8 9 -9 0 -12
-3 -21 -7 -21 -31 5 -44 -2 -38 -21 3 -11 3 -25 -2 -32 -11 -19 -13 -117 -2
-124 12 -7 2 -41 -23 -77 -22 -31 -17 -59 9 -55 15 3 18 -6 18 -73 0 -72 -1
-77 -25 -88 -55 -24 -121 -109 -92 -118 6 -3 12 -13 12 -24 0 -14 -7 -19 -28
-19 -15 0 -33 5 -40 12 -9 9 -12 -1 -12 -45 0 -41 -4 -59 -15 -63 -20 -8 -57
-74 -51 -90 3 -8 -1 -14 -9 -14 -7 0 -16 -8 -19 -17 -9 -30 -10 -88 -2 -101 5
-8 -3 -16 -23 -23 -33 -12 -37 -19 -20 -36 8 -8 5 -13 -10 -18 -27 -8 -27 -41
-1 -48 26 -7 26 -29 -1 -45 -15 -10 -24 -10 -34 -2 -17 14 -38 3 -31 -16 3 -8
-3 -20 -14 -26 -11 -7 -20 -18 -20 -25 0 -7 -5 -13 -11 -13 -7 0 -8 11 -4 31
5 22 4 29 -4 25 -6 -4 -9 -12 -6 -17 4 -5 3 -9 -2 -9 -4 0 -15 -13 -24 -29
-12 -21 -14 -33 -6 -47 9 -17 9 -17 -6 -6 -14 12 -21 9 -52 -22 -19 -19 -35
-38 -35 -41 0 -12 28 -4 48 15 29 27 48 25 48 -5 0 -21 -6 -25 -42 -31 -23 -3
-54 -7 -68 -8 -16 0 -26 -7 -26 -16 0 -16 -34 -50 -50 -50 -5 0 -7 -6 -4 -14
3 -8 -7 -18 -26 -26 -22 -9 -28 -16 -21 -23 6 -6 11 -17 11 -25 0 -10 -3 -10
-16 2 -31 32 -55 17 -56 -34 -1 -26 -4 -29 -22 -24 -12 4 -22 11 -24 15 -4 11
-52 12 -53 2 -7 -68 -18 -84 -50 -76 -13 4 -20 -2 -25 -21 -4 -19 -13 -26 -31
-26 -18 0 -23 -4 -20 -14 8 -21 -28 -50 -50 -41 -46 19 -80 6 -53 -21 18 -18
1 -39 -30 -38 -46 2 -46 2 -58 27 -10 21 -11 21 -11 -8 -2 -39 -14 -58 -43
-62 -13 -2 -24 -8 -26 -13 -6 -16 -22 -12 -22 5 0 14 -11 19 -37 16 -7 -1 -13
3 -13 9 0 12 -69 10 -76 -2 -3 -4 -17 -5 -31 -2 -17 5 -24 3 -19 -4 9 -14 -3
-42 -19 -42 -7 0 -18 -14 -24 -30 -12 -35 -27 -39 -36 -10 -3 11 -12 20 -19
20 -11 0 -71 -84 -71 -101 0 -17 -17 -22 -25 -9 -7 10 -10 11 -10 3 0 -7 -9
-13 -20 -13 -13 0 -20 -7 -20 -19 0 -10 -8 -21 -17 -23 -10 -3 -25 -18 -33
-34 -28 -54 -36 -58 -82 -43 -27 9 -43 21 -50 38 l-9 26 -19 -25 c-10 -13 -16
-28 -14 -32 11 -17 -29 -42 -61 -40 -19 2 -36 -2 -40 -8 -10 -16 -25 -12 -25
6 0 13 -7 15 -32 10 -53 -11 -82 -7 -96 11 -11 16 -13 15 -28 -5 -9 -13 -26
-22 -40 -22 -20 0 -29 9 -43 42 l-18 43 -7 -38 c-4 -21 -5 -51 -1 -66 4 -19 0
-35 -15 -54 -18 -23 -24 -25 -40 -15 -15 10 -22 10 -31 1 -7 -7 -24 -10 -38
-7 -22 5 -32 -2 -59 -35 -18 -23 -38 -41 -43 -41 -6 0 -25 -11 -43 -25 -31
-24 -66 -32 -159 -39 -26 -2 -56 -11 -66 -20 -24 -22 -41 -20 -41 5 0 33 -30
19 -53 -23 -22 -44 -53 -50 -82 -18 -20 22 -55 29 -37 7 8 -10 2 -12 -30 -12
-28 0 -44 7 -54 20 -14 19 -15 19 -44 1 -35 -20 -83 -14 -102 13 -13 17 -53
22 -74 9 -29 -19 -77 23 -59 52 9 15 -2 12 -31 -7 -22 -14 -31 -15 -57 -5 -21
8 -35 8 -41 2 -28 -28 -126 17 -126 57 0 12 -8 15 -39 10 -40 -5 -40 -5 -43
31 -4 51 -32 55 -52 9 -18 -44 -33 -53 -41 -26 -4 12 -12 18 -21 15 -8 -3 -21
-9 -29 -12 -9 -4 -19 3 -26 20 -16 34 -33 28 -39 -13 -3 -17 -8 -32 -12 -31
-5 0 -12 0 -18 0 -5 0 -10 9 -10 19 0 26 -27 52 -46 44 -8 -3 -26 6 -41 21
-14 14 -32 26 -39 26 -13 0 -37 22 -66 63 -13 17 -15 17 -37 -2 -13 -12 -27
-21 -31 -21 -14 0 -32 30 -27 45 7 17 -28 45 -56 45 -10 0 -32 -9 -48 -21 -27
-19 -32 -19 -47 -7 -22 19 -53 32 -70 29 -36 -6 -71 69 -39 82 9 4 9 6 0 6 -7
1 -26 -12 -43 -29 -27 -27 -33 -28 -57 -17 -20 9 -27 9 -30 0 -6 -18 -49 5
-62 33 -10 22 -43 42 -94 58 -11 3 -21 15 -24 26 -6 22 -23 26 -40 9 -16 -16
-61 13 -150 99 -13 12 -30 22 -37 22 -6 0 -21 7 -32 15 -10 8 -26 15 -35 15
-20 0 -32 -47 -14 -58 6 -4 14 -15 18 -24 4 -11 17 -18 31 -18 18 0 27 -8 34
-29 6 -16 8 -32 5 -35 -4 -3 2 -15 12 -26 17 -18 17 -20 2 -14 -14 5 -17 0
-17 -32 0 -53 12 -68 44 -60 20 5 26 3 26 -10 0 -12 7 -15 27 -11 34 6 76 -14
123 -60 19 -18 49 -37 67 -42 18 -5 46 -22 61 -38 16 -15 46 -37 68 -48 21
-11 63 -40 91 -64 49 -40 53 -47 53 -87 0 -48 10 -54 40 -24 19 19 67 29 56
11 -3 -5 1 -14 9 -21 8 -7 15 -17 15 -23 0 -16 67 -77 86 -77 17 0 104 -84
104 -100 0 -5 9 -12 21 -15 17 -6 18 -9 7 -22 -9 -12 -10 -17 -1 -20 6 -2 21
-13 34 -24 25 -21 116 -27 149 -9 25 14 113 -6 134 -29 16 -17 15 -19 -6 -25
l-23 -6 23 -20 c13 -11 39 -22 58 -26 29 -5 34 -10 28 -26 -5 -17 -2 -19 30
-13 26 5 47 1 79 -14 25 -12 87 -29 138 -37 146 -24 143 -24 130 -37 -6 -6
-11 -18 -11 -25 0 -12 12 -14 68 -8 37 5 77 7 90 7 12 0 22 4 22 9 0 6 9 10
20 10 13 0 17 -5 14 -14 -7 -19 26 -36 73 -36 42 0 221 -24 298 -40 28 -6 63
-8 78 -4 16 3 56 6 90 6 47 0 64 -4 74 -18 9 -12 10 -20 2 -24 -16 -11 0 -57
22 -63 14 -4 23 2 31 19 7 15 23 26 45 30 19 4 33 12 33 20 0 19 -28 30 -42
16 -7 -7 -14 -7 -23 1 -10 9 -1 15 39 24 71 17 78 16 72 -5 -6 -19 36 -66 49
-54 3 4 3 -1 -1 -11 -3 -10 -1 -17 5 -17 7 0 14 7 17 15 4 8 11 12 17 8 5 -3
16 2 24 13 11 15 17 17 33 6 11 -6 38 -12 60 -12 26 0 43 -5 46 -14 3 -8 14
-13 24 -11 20 4 54 -29 64 -62 7 -22 31 -22 49 1 5 7 7 2 4 -11 -5 -20 -2 -22
20 -17 16 4 28 2 34 -7 5 -8 20 -13 38 -11 22 3 31 -1 34 -15 4 -17 5 -17 6 1
1 13 6 17 21 13 15 -4 26 2 37 20 15 22 18 23 28 9 19 -25 54 -20 61 9 4 15
13 25 24 25 28 0 35 20 8 21 -16 1 -11 4 16 11 29 8 40 7 46 -2 8 -13 42 29
54 68 4 12 12 22 17 22 12 0 11 -17 -2 -26 -6 -3 -8 -17 -5 -30 4 -14 2 -24
-5 -24 -6 0 -9 -6 -7 -12 6 -16 31 -16 96 2 54 14 59 21 42 66 -8 21 -7 32 5
51 9 13 13 33 10 43 -4 12 -2 20 4 20 6 0 11 -4 11 -9 0 -5 10 -13 21 -16 16
-5 27 0 44 20 21 27 22 28 53 12 18 -8 32 -11 32 -6 0 22 26 37 45 27 16 -9
17 -8 11 16 -6 23 -3 26 20 26 14 0 33 7 42 16 14 14 17 15 27 1 7 -10 20 -13
37 -10 26 5 26 6 11 29 -14 21 -14 24 0 30 9 3 26 4 39 2 19 -2 24 -10 26 -40
2 -21 7 -38 12 -38 5 0 7 7 4 15 -4 10 0 15 14 15 15 0 22 -9 27 -30 7 -34 29
-60 51 -60 20 0 17 27 -5 47 -25 21 -17 35 15 27 18 -5 24 -2 24 10 0 9 5 16
11 16 6 0 8 -7 5 -15 -16 -40 -19 -49 -11 -43 11 11 35 -11 35 -31 0 -10 -14
-31 -30 -48 l-30 -31 25 -16 c27 -18 36 -60 10 -50 -18 7 -19 -3 -2 -39 6 -15
21 -27 32 -28 17 -1 18 -2 2 -6 -10 -3 -30 -17 -45 -31 -22 -23 -27 -36 -29
-84 0 -31 -4 -61 -7 -66 -3 -6 1 -12 9 -16 8 -3 12 -12 9 -20 -4 -9 1 -13 13
-13 15 2 17 -4 15 -32 -1 -18 3 -40 9 -47 6 -8 9 -23 6 -34 -3 -14 1 -21 17
-26 23 -7 65 -52 66 -71 0 -7 7 -13 15 -13 8 0 15 -6 15 -14 0 -10 -9 -14 -26
-13 -35 3 -42 -20 -11 -32 32 -12 43 -29 23 -37 -17 -6 -10 -34 8 -34 14 0 39
-28 49 -54 7 -18 9 -18 31 3 14 13 29 19 39 15 21 -8 21 -14 1 -42 -14 -20
-14 -22 0 -22 9 0 16 -4 16 -10 0 -5 -5 -10 -10 -10 -6 0 -8 -11 -4 -26 5 -18
1 -29 -12 -38 -16 -12 -16 -16 -5 -30 21 -25 44 -1 37 38 -4 23 -3 27 4 16 8
-12 11 -13 19 -1 5 8 11 9 15 3 3 -6 2 -13 -4 -17 -11 -7 -14 -74 -4 -99 4
-11 14 -14 29 -10 27 7 41 -19 19 -36 -8 -7 -14 -21 -14 -30 0 -29 49 -80 76
-80 28 0 33 -30 9 -50 -21 -18 -19 -27 10 -32 16 -4 29 0 34 10 13 23 41 7 42
-25 0 -15 3 -22 6 -15 2 6 16 12 29 12 13 0 24 6 24 13 1 24 30 -56 30 -83 0
-21 6 -29 25 -34 14 -4 34 -2 45 4 21 11 27 30 10 30 -5 0 -10 4 -10 9 0 18
38 -1 51 -25 10 -19 10 -27 1 -36 -18 -18 -15 -28 8 -28 11 0 20 5 20 10 0 6
8 10 17 10 13 0 10 -7 -12 -30 l-29 -30 33 0 c36 0 77 -32 65 -51 -5 -9 -2
-10 9 -6 9 3 19 2 22 -3 4 -6 15 -10 25 -10 21 0 40 -27 33 -47 -2 -6 5 -14
16 -18 14 -4 21 -15 21 -31 0 -20 5 -24 31 -24 24 0 29 -3 25 -17 -3 -10 -2
-24 3 -31 6 -10 15 -7 38 12 38 32 43 32 43 0 0 -20 3 -24 13 -16 16 13 122 1
139 -16 19 -19 37 -14 31 8 -5 19 7 27 21 13 8 -8 39 -13 84 -13 26 -1 35 -6
43 -27 8 -21 12 -24 22 -14 9 10 7 17 -12 32 l-23 19 23 9 c30 11 55 3 40 -12
-39 -39 22 -50 63 -12 30 28 42 31 50 13 3 -10 9 -8 19 5 14 17 16 17 25 1 5
-9 15 -14 21 -10 6 4 9 12 6 17 -4 5 -2 9 4 9 5 0 13 -9 16 -20 4 -11 17 -28
31 -36 13 -9 21 -20 18 -25 -3 -5 4 -9 14 -9 11 0 22 7 26 15 3 8 14 15 25 15
11 0 21 5 23 10 4 13 58 -10 58 -25 0 -5 8 2 18 17 13 20 21 24 32 17 13 -8
11 -13 -9 -29 -13 -11 -22 -22 -20 -23 35 -25 63 -37 75 -33 18 7 18 26 0 26
-8 0 -17 7 -20 16 -9 23 -1 28 14 9 7 -8 23 -15 36 -15 17 0 27 -8 34 -25 6
-16 14 -23 25 -19 10 4 15 0 15 -12 0 -23 32 -94 42 -94 4 0 8 -18 8 -40 0
-26 5 -42 17 -49 15 -8 12 -16 -26 -65 -122 -158 -334 -370 -502 -503 -157
-123 -374 -273 -397 -273 -3 0 -19 -11 -37 -24 -47 -36 -342 -176 -370 -176
-8 0 -23 -4 -33 -9 -63 -32 -199 -84 -312 -119 -81 -26 -156 -51 -195 -67 -16
-7 -57 -16 -90 -20 -33 -4 -69 -12 -80 -18 -11 -6 -45 -14 -75 -18 -30 -4 -77
-13 -105 -18 -51 -11 -200 -36 -310 -52 -84 -13 -259 -27 -470 -39 -99 -5
-214 -12 -255 -15 -148 -11 -367 -13 -470 -4 -58 5 -163 14 -235 19 -150 13
-291 34 -565 85 -290 54 -579 141 -810 243 -19 8 -66 27 -105 42 -129 51 -233
98 -262 117 -15 11 -55 33 -88 50 -33 17 -94 52 -135 78 -41 26 -95 59 -119
74 -40 24 -160 115 -171 129 -3 4 -41 38 -85 76 -113 98 -215 206 -299 316
-154 202 -225 334 -257 478 -5 23 -14 63 -20 90 -13 58 -14 214 -1 239 5 10
12 34 16 54 4 21 15 48 26 62 11 14 20 28 20 31 0 4 18 32 40 64 36 54 97 118
210 220 34 30 42 44 34 52 -9 9 -23 7 -55 -8 -253 -115 -251 -114 -336 -118
-120 -5 -251 -22 -313 -39 -30 -8 -82 -21 -115 -29 -33 -8 -114 -28 -180 -44
-136 -34 -226 -54 -371 -82 -128 -25 -247 -59 -399 -115 -218 -79 -491 -152
-658 -174 -42 -6 -103 -20 -135 -30 -31 -11 -88 -27 -127 -36 -135 -31 -428
-131 -545 -187 -36 -17 -90 -38 -120 -48 -68 -22 -175 -67 -300 -127 -241
-115 -337 -150 -1145 -413 -88 -28 -196 -67 -241 -86 -45 -19 -86 -34 -92 -34
-6 0 -40 -14 -75 -30 -36 -17 -68 -30 -71 -30 -17 0 -357 -177 -471 -245 -155
-92 -194 -120 -347 -244 -64 -53 -136 -112 -161 -132 -140 -110 -315 -279
-367 -355 -17 -24 -43 -90 -63 -160 -19 -66 -51 -152 -71 -192 -20 -40 -46
-96 -57 -125 -11 -28 -32 -63 -47 -77 -15 -14 -37 -44 -50 -67 l-22 -42 0
-1010 0 -1011 9535 0 9535 0 0 1118 c0 614 -3 1134 -6 1154 -6 31 -12 39 -46
53 -24 9 -73 49 -122 98 -127 129 -221 206 -356 291 -69 43 -150 96 -180 117
-30 21 -100 60 -155 87 -151 74 -241 119 -449 225 -104 53 -196 97 -205 97 -9
0 -25 6 -36 14 -11 7 -60 30 -110 51 -49 21 -94 42 -99 46 -6 5 -16 9 -23 9
-8 0 -62 23 -121 51 -59 28 -143 66 -187 84 -83 34 -271 121 -338 157 -21 11
-72 32 -115 48 -80 29 -213 85 -342 145 -140 64 -472 174 -745 246 -60 16
-164 47 -230 69 -66 22 -208 68 -316 104 -108 35 -214 73 -235 84 -22 10 -123
47 -225 81 -197 65 -225 75 -329 123 -36 16 -118 48 -183 70 -79 26 -160 64
-245 113 -85 49 -145 77 -182 84 -30 6 -93 18 -140 27 -99 18 -325 73 -455
110 -51 14 -126 27 -172 29 -64 3 -95 10 -145 33 -35 16 -72 39 -82 51 -11 11
-25 21 -33 21 -7 0 -41 28 -76 63 -81 81 -140 197 -161 317 -36 201 -92 563
-107 685 -13 111 -29 417 -22 428 5 8 42 239 43 265 0 7 21 35 46 62 l47 50
151 0 151 0 55 36 c30 21 78 52 107 71 79 52 131 141 156 265 11 53 28 99 56
146 23 37 41 71 41 74 0 3 20 41 44 84 24 44 49 102 56 131 6 28 25 73 41 99
38 59 102 203 123 273 14 46 27 64 97 130 45 41 105 92 133 112 58 41 121 127
141 191 8 24 23 68 34 99 17 48 19 71 14 157 l-6 100 65 30 c64 31 88 59 88
102 0 12 -20 35 -48 57 -69 54 -100 143 -69 202 12 24 102 78 247 148 161 78
304 276 277 385 -6 21 -11 23 -47 20 l-40 -4 0 -59 c0 -54 -2 -61 -25 -71 -14
-6 -25 -15 -25 -19 0 -13 -36 -20 -64 -13 -35 8 -33 33 4 69 17 16 30 39 30
51 0 12 7 38 15 58 10 22 14 63 13 108 -1 69 1 76 35 128 51 76 53 85 22 122
-21 25 -25 38 -21 67 3 20 10 98 16 175 6 76 15 147 20 157 6 10 10 25 10 34
0 9 9 28 20 42 11 14 20 36 20 48 0 40 50 169 120 310 38 77 79 167 90 200 40
117 69 211 84 270 14 58 41 368 39 450 0 22 -3 123 -6 225 l-5 185 34 89 c57
148 43 206 -76 324 -84 84 -83 81 -100 198 -12 80 -12 82 18 149 31 71 32 102
3 89 -39 -16 -55 -9 -69 31 -39 112 -49 120 -102 88 -36 -21 -60 -5 -60 38 0
25 -4 29 -29 29 -40 0 -101 57 -101 95 0 15 -9 58 -19 94 -11 36 -23 91 -26
121 -4 30 -14 73 -22 95 -21 59 -43 179 -43 237 0 68 -47 206 -125 363 -53
108 -69 153 -94 265 -20 87 -47 172 -76 240 -67 152 -83 192 -90 223 -3 17
-15 31 -29 37 -30 11 -34 31 -37 160 -3 140 3 156 54 151 26 -3 21 24 -20 111
-26 56 -41 78 -55 78 -10 0 -24 12 -30 26 -10 22 -9 27 5 35 13 7 15 17 11 37
-9 35 -30 59 -80 88 -37 22 -45 34 -70 102 -31 87 -101 183 -180 247 -48 39
-154 132 -204 179 -14 13 -47 40 -75 61 -27 20 -114 101 -191 180 -78 79 -156
151 -173 160 -18 9 -40 29 -49 44 -20 33 -98 101 -115 101 -7 0 -23 12 -36 25
-13 14 -29 25 -37 25 -16 0 -19 -26 -4 -35 6 -3 10 -15 10 -26 0 -29 -37 -24
-70 10 -16 16 -36 31 -45 35 -19 7 -11 26 11 26 8 0 14 6 14 14 0 14 -13 23
-102 67 -42 22 -111 24 -204 8 -43 -7 -68 -8 -82 0 -23 12 -77 0 -138 -32 -39
-19 -45 -20 -85 -6 -24 7 -48 13 -53 11 -22 -7 -58 9 -52 23 3 8 0 15 -7 15
-7 0 -33 11 -59 25 -26 14 -64 25 -85 25 -52 1 -77 25 -98 95 -18 63 -68 125
-101 125 -11 0 -34 9 -52 20 -18 11 -38 20 -46 20 -17 0 -33 -34 -46 -95 -22
-104 -39 -142 -70 -155 -24 -10 -36 -10 -60 0 -23 10 -41 10 -77 1 -62 -15
-103 -31 -103 -41 0 -4 -18 -15 -40 -24 -84 -33 -318 -13 -382 34 -33 24 -145
38 -177 21 -24 -13 -176 3 -198 21 -8 6 -36 7 -71 3 -55 -6 -61 -5 -87 19 -35
32 -69 35 -60 6 5 -16 2 -20 -19 -20 -14 0 -28 5 -31 10 -3 6 -34 10 -68 10
-34 0 -98 11 -142 23 -70 20 -80 26 -83 47 -4 29 -28 51 -47 44 -7 -3 -29 2
-50 10 -21 9 -53 16 -71 16 -37 0 -39 2 -24 31 8 14 8 20 -2 23 -25 8 -185 12
-204 5z m-309 -2264 c6 -1 10 -16 9 -31 -1 -16 -3 -35 -3 -41 -1 -7 -10 -13
-20 -13 -11 0 -23 -4 -26 -10 -3 -5 -21 -10 -40 -10 -20 0 -35 -6 -39 -15 -6
-16 -61 -21 -70 -7 -6 10 -103 6 -143 -7 -18 -5 -33 -9 -34 -8 0 1 -1 20 -2
42 -2 30 2 40 13 40 8 0 21 4 29 9 8 5 16 4 20 -2 5 -8 18 -5 41 10 25 15 53
21 104 22 52 1 72 5 80 18 9 15 36 16 81 3z m2587 -1659 c9 -22 13 -23 25 -10
18 17 45 19 42 2 -1 -7 2 -24 8 -38 6 -14 13 -32 16 -40 4 -11 7 -10 12 8 4
12 11 22 15 22 15 0 30 -28 28 -51 -2 -13 3 -24 10 -25 24 -3 24 -4 12 -19
-17 -20 -53 -19 -73 3 -13 14 -14 21 -5 30 8 8 6 11 -8 10 -34 -1 -74 21 -84
47 -5 14 -14 25 -19 25 -5 0 -11 10 -14 22 -11 42 17 53 35 14z m-5665 -2871
c3 -28 -2 -93 -11 -144 -9 -52 -16 -120 -16 -150 0 -67 -10 -86 -40 -78 -34 9
-49 -2 -56 -39 -5 -27 -2 -38 11 -48 15 -11 15 -13 1 -25 -12 -10 -23 -9 -59
7 -42 18 -46 24 -56 71 -6 29 -11 60 -11 70 0 23 -26 46 -35 31 -3 -5 -11 -10
-17 -10 -13 0 -2 63 18 102 8 15 14 42 14 61 0 32 -2 34 -27 29 -35 -7 -52
-29 -52 -67 0 -49 -22 -189 -31 -199 -5 -5 -16 7 -27 28 -14 29 -15 43 -6 66
9 24 8 29 -7 33 -12 3 -20 19 -25 46 -4 22 -11 43 -16 47 -5 3 -9 14 -9 26 0
17 -4 20 -30 15 -38 -8 -55 17 -39 61 5 16 9 33 8 38 -4 25 5 32 44 37 23 3
56 9 73 12 26 6 34 3 48 -16 15 -22 14 -25 -11 -51 -29 -31 -26 -32 42 -28 31
1 47 10 72 37 29 31 37 35 67 29 31 -6 39 -2 75 32 23 21 41 46 41 55 0 9 8
21 18 26 14 8 19 4 30 -22 8 -17 16 -54 19 -82z m8278 -84 c2 -45 6 -95 10
-111 5 -23 2 -31 -15 -40 -31 -17 -41 -3 -51 72 -5 35 -11 80 -15 101 -5 32
-2 43 17 63 35 38 50 14 54 -85z m-148 -293 c6 -7 13 -26 17 -43 7 -25 9 -28
19 -15 7 8 24 23 39 33 27 17 28 16 40 -6 7 -12 12 -25 11 -28 -1 -3 -5 -42
-8 -85 -3 -43 -10 -83 -14 -89 -5 -5 -14 -32 -20 -60 -7 -27 -16 -54 -20 -60
-5 -5 -14 -28 -21 -50 -29 -89 -101 -159 -86 -82 4 17 11 55 15 82 4 28 18 73
31 100 28 61 37 215 13 215 -7 0 -16 -6 -19 -14 -3 -8 -12 -17 -19 -20 -10 -4
-12 3 -8 28 3 20 1 36 -6 40 -6 4 -11 20 -11 37 0 22 5 29 19 29 10 0 23 -6
28 -12z m-305 -241 c17 3 29 -4 46 -26 14 -19 32 -31 46 -31 33 0 52 -27 66
-95 13 -63 8 -178 -11 -250 -37 -145 -209 -335 -302 -335 -28 0 -37 16 -37 65
0 49 17 79 57 100 20 11 42 30 50 42 13 20 13 24 -7 45 -12 13 -26 23 -31 23
-5 0 -20 8 -32 18 -12 9 -36 28 -53 42 -18 14 -41 25 -52 25 -28 0 -44 24 -49
73 -4 44 0 55 54 128 63 87 68 94 70 117 1 12 -2 20 -8 17 -22 -14 -6 31 18
51 23 18 25 24 15 37 -11 12 -8 18 15 35 l27 19 48 -52 c37 -40 53 -51 70 -48z
m-266 -612 c13 -20 15 -38 9 -89 -6 -58 -4 -70 24 -128 16 -36 33 -78 37 -94
3 -16 13 -40 22 -54 23 -36 25 -155 3 -200 -26 -55 -64 -71 -183 -75 -57 -2
-107 -4 -113 -6 -9 -2 -50 4 -110 16 -35 7 -77 54 -70 78 19 74 31 103 44 113
18 14 60 9 118 -12 24 -9 47 -13 52 -10 5 4 15 31 21 61 10 49 9 57 -10 82
-19 27 -20 31 -5 80 9 29 22 58 29 66 12 11 10 17 -8 34 -25 24 -51 97 -40
114 15 25 71 49 116 49 40 0 50 -4 64 -25z"/>
<path d="M10196 12495 c-3 -8 -15 -15 -26 -15 -11 0 -23 -7 -26 -15 -4 -8 -17
-15 -29 -15 -13 0 -25 -5 -27 -10 -2 -6 -16 -12 -31 -14 -15 -1 -30 -6 -34 -9
-3 -4 -23 -7 -43 -7 -41 0 -169 -41 -179 -58 -4 -7 -26 -8 -61 -3 -44 5 -62 3
-92 -12 -21 -10 -38 -25 -38 -33 0 -7 -15 -28 -34 -46 -18 -18 -36 -43 -40
-55 -4 -12 -20 -38 -36 -58 -21 -27 -30 -49 -30 -75 0 -28 -6 -41 -22 -52 -19
-13 -22 -24 -21 -79 0 -83 17 -181 37 -216 9 -15 25 -55 35 -88 10 -33 22 -60
27 -60 15 0 55 -45 49 -55 -4 -6 3 -10 14 -10 12 0 21 -4 21 -9 0 -6 16 -27
35 -48 20 -21 38 -49 42 -63 8 -32 53 -100 65 -100 6 0 8 -9 5 -20 -4 -14 1
-25 14 -33 10 -6 19 -20 19 -30 0 -11 9 -21 20 -24 25 -7 26 -20 3 -26 -16 -3
-16 -5 2 -12 22 -9 55 -43 55 -57 0 -14 28 -9 34 7 3 8 15 15 26 15 16 0 20 7
20 30 0 23 7 32 35 46 19 9 38 26 41 38 6 24 -25 105 -48 124 -8 6 -23 31 -34
54 -10 24 -29 56 -41 72 -48 58 -75 142 -55 172 18 29 185 36 310 13 70 -13
73 -12 94 9 l22 22 -31 0 c-17 0 -36 7 -43 15 -7 8 -20 15 -30 15 -12 0 -20
10 -23 33 -4 17 -9 46 -12 62 -6 28 -3 32 47 62 29 17 62 41 72 52 11 12 27
21 36 21 9 0 20 4 26 8 18 16 113 44 125 37 8 -5 9 -25 5 -59 -8 -72 2 -118
38 -178 34 -57 106 -118 138 -118 12 0 36 -16 55 -35 40 -41 67 -44 98 -11 13
14 39 32 58 40 78 32 157 141 157 216 0 110 70 106 197 -13 78 -73 80 -92 18
-144 -47 -39 -55 -57 -30 -67 8 -3 12 -12 9 -20 -4 -10 2 -17 20 -22 23 -6 26
-11 26 -54 0 -50 18 -77 44 -67 8 3 17 0 19 -8 8 -19 133 -12 156 10 10 8 25
13 32 10 8 -3 30 6 49 20 19 14 39 25 46 25 6 0 14 10 17 22 5 16 9 19 19 10
18 -14 56 -17 96 -7 33 8 44 25 15 25 -9 0 -14 3 -11 6 4 3 23 1 43 -5 35 -9
37 -9 32 10 -4 14 -1 19 8 15 21 -8 25 51 5 69 -9 8 -22 15 -28 15 -16 0 -15
17 1 23 10 4 10 6 0 6 -7 1 -13 8 -13 16 0 8 6 15 13 15 20 1 -25 30 -47 30
-19 1 -19 2 3 14 l25 14 -32 16 c-18 9 -35 17 -39 17 -23 3 -42 22 -48 49 -4
20 -13 30 -25 30 -36 0 -50 12 -50 41 0 24 -4 29 -24 29 -17 0 -33 12 -52 38
-51 70 -146 142 -279 212 -72 38 -105 46 -105 26 0 -20 -60 -27 -94 -10 -40
19 -69 18 -88 -5 -23 -27 -33 -82 -17 -92 7 -4 10 -11 7 -15 -4 -3 -15 1 -24
10 -16 16 -19 15 -46 -18 l-29 -36 -97 0 c-120 0 -272 -18 -292 -34 -26 -21
-66 -34 -79 -26 -7 4 -11 20 -9 35 2 16 -2 30 -9 32 -7 3 -13 0 -13 -6 0 -6
-9 -11 -20 -11 -11 0 -20 5 -20 10 0 6 9 10 20 10 13 0 20 7 20 20 0 30 -20
24 -57 -17 -32 -37 -43 -73 -22 -73 6 0 9 -6 7 -12 -4 -12 -18 -22 -160 -107
-40 -24 -103 -63 -140 -87 -37 -24 -72 -44 -78 -44 -6 0 -20 -16 -32 -35 -22
-38 -41 -41 -46 -9 -2 13 13 32 43 57 50 42 55 56 25 75 -26 16 -27 74 -1 164
17 58 28 76 83 131 34 36 81 72 103 82 22 9 68 30 101 46 34 16 69 26 78 23 9
-3 16 -1 16 5 0 6 7 8 15 5 9 -4 22 3 33 15 23 29 124 71 190 78 47 5 71 17
60 29 -3 2 -25 7 -49 10 -24 4 -54 10 -67 15 -13 5 -38 9 -56 9 -17 0 -36 4
-41 9 -6 5 -20 12 -32 16 -17 5 -23 2 -23 -9 0 -9 -7 -16 -15 -16 -8 0 -15 7
-15 15 0 8 -6 15 -14 15 -8 0 -16 -7 -20 -15z"/>
<path d="M7475 12090 c-67 -8 -162 -36 -185 -55 -13 -11 -84 -50 -200 -112
-14 -7 -30 -13 -37 -13 -6 0 -21 -13 -33 -30 -12 -16 -30 -30 -41 -30 -10 0
-19 -5 -19 -12 0 -13 -49 -68 -61 -68 -5 0 -20 -11 -34 -24 -18 -17 -25 -31
-21 -44 6 -18 14 -19 74 -15 37 3 69 7 71 9 2 2 9 -3 15 -12 6 -8 32 -17 57
-20 41 -4 47 -2 52 15 3 13 13 21 26 21 23 0 28 14 9 26 -6 4 -24 8 -40 9 -16
2 -31 5 -34 8 -12 12 18 46 51 57 19 6 35 15 35 20 0 4 20 30 45 58 48 53 128
105 183 116 36 8 35 10 32 -91 -2 -73 31 -142 95 -202 81 -73 167 -105 181
-66 7 17 40 20 49 5 3 -5 18 -10 32 -10 33 0 111 82 150 160 22 43 29 72 32
132 2 51 8 81 17 89 12 10 4 17 -44 40 -48 24 -79 31 -177 39 -133 11 -191 11
-280 0z"/>
<path d="M8592 12040 c0 -21 -6 -48 -12 -59 -6 -12 -8 -21 -4 -21 3 0 2 -6 -4
-12 -9 -11 0 -113 11 -124 1 -2 16 0 33 5 25 6 29 12 29 42 1 19 7 61 14 94
16 78 5 112 -37 113 -28 1 -30 -2 -30 -38z"/>
<path d="M9636 11207 c-30 -51 -28 -85 10 -163 19 -39 34 -79 34 -88 0 -9 7
-19 15 -22 8 -4 15 -14 15 -23 0 -9 4 -21 9 -26 16 -19 61 -146 61 -174 0 -32
47 -81 121 -124 35 -21 50 -38 69 -81 13 -30 27 -53 32 -50 4 3 8 -1 8 -8 0
-9 3 -9 10 2 6 9 10 10 10 3 0 -6 -5 -15 -10 -18 -8 -5 -7 -11 0 -21 13 -15
18 -172 7 -219 -4 -16 -9 -44 -12 -61 -6 -34 -48 -78 -112 -118 -24 -14 -43
-30 -43 -34 0 -15 -69 -42 -148 -58 -42 -8 -85 -17 -94 -20 -24 -7 -78 -62
-78 -80 0 -10 -12 -14 -41 -14 -24 0 -47 -7 -57 -16 -15 -15 -14 -18 3 -30 24
-18 65 -18 65 -1 0 8 9 22 19 31 16 15 22 16 42 4 13 -7 29 -19 35 -27 8 -11
26 -12 77 -7 37 4 70 12 73 17 3 6 18 8 32 5 23 -5 29 -1 42 26 12 23 27 34
60 44 25 8 55 14 67 14 15 0 21 5 17 13 -3 8 15 30 43 53 103 84 127 126 148
256 l16 105 -25 90 c-26 91 -67 187 -99 233 -42 59 -77 116 -77 126 0 20 -41
95 -55 100 -7 3 -16 16 -19 30 -4 15 -14 24 -26 24 -23 0 -53 41 -70 95 -7 22
-20 48 -29 59 -9 10 -16 32 -16 50 0 26 -4 31 -27 34 -31 4 -38 28 -10 35 12
3 10 5 -7 6 -16 1 -21 5 -17 16 6 16 -18 45 -37 45 -7 0 -20 -15 -31 -33z"/>
<path d="M9544 10221 c-74 -7 -97 -23 -228 -150 -36 -36 -66 -68 -66 -73 0 -5
-19 -29 -42 -54 -39 -42 -40 -46 -25 -62 12 -11 34 -16 70 -16 41 0 57 5 78
24 70 65 122 102 176 124 151 62 173 69 216 62 83 -12 82 -12 79 9 -2 11 -9
26 -15 33 -16 20 -160 112 -172 110 -5 0 -37 -4 -71 -7z"/>
<path d="M8534 10161 c-37 -19 -80 -52 -108 -84 -26 -28 -55 -60 -63 -69 -9
-10 -29 -18 -45 -18 -41 0 -36 -24 15 -74 42 -41 98 -66 151 -66 24 0 26 4 26
39 0 37 -2 39 -47 56 -27 10 -52 22 -58 27 -14 13 33 52 89 73 42 16 48 16 86
1 23 -9 45 -14 50 -11 4 3 43 0 85 -6 55 -7 81 -7 88 0 17 17 45 13 52 -8 7
-22 32 -35 41 -20 6 11 -99 144 -131 165 -12 8 -55 17 -96 20 -69 5 -78 4
-135 -25z"/>
<path d="M9530 9756 c0 -14 -41 -46 -60 -46 -6 0 -29 -9 -50 -19 -39 -19 -39
-19 -46 1 -8 26 -26 18 -37 -18 -6 -16 -16 -33 -23 -37 -8 -5 -14 -25 -14 -47
0 -33 4 -40 19 -40 11 0 21 -5 23 -10 2 -6 26 -17 53 -24 35 -9 54 -19 62 -36
7 -14 18 -29 26 -35 15 -11 29 -55 19 -55 -4 0 -15 -7 -25 -14 -14 -11 -16
-19 -7 -40 5 -14 16 -26 25 -26 8 0 15 -4 15 -9 0 -5 9 -7 20 -4 14 4 30 -3
45 -17 31 -29 32 -40 3 -40 -13 0 -40 -16 -61 -35 -30 -27 -46 -35 -77 -35
-21 0 -42 -5 -46 -11 -4 -7 -22 -9 -44 -6 -32 4 -39 2 -43 -15 -5 -18 -7 -18
-44 6 -34 23 -46 25 -87 20 -40 -6 -52 -12 -65 -36 -9 -16 -27 -31 -41 -35
-23 -6 -23 -7 -5 -14 19 -7 19 -8 -2 -15 -13 -3 -23 -13 -23 -21 0 -15 -13
-15 -66 2 -17 5 -22 0 -30 -32 l-9 -38 -69 -7 c-37 -4 -91 -12 -118 -19 -46
-11 -52 -10 -81 12 -17 13 -43 22 -56 21 -14 -1 -28 3 -32 10 -10 15 8 48 25
48 8 0 28 16 45 35 36 41 42 42 76 11 34 -32 86 -42 102 -20 13 18 7 44 -10
44 -6 0 -18 7 -28 16 -22 20 -157 22 -187 3 -16 -10 -25 -9 -54 8 -36 21 -110
27 -140 12 -11 -6 -25 -5 -37 3 -17 10 -25 9 -50 -10 -17 -12 -41 -22 -54 -22
-30 0 -119 -83 -136 -127 -12 -29 -107 -106 -172 -138 -11 -5 -23 -21 -26 -35
-3 -14 -10 -30 -15 -37 -19 -23 2 -73 41 -97 56 -36 196 -41 221 -8 3 4 23 16
45 27 31 16 41 28 43 50 5 43 41 79 82 83 19 2 47 11 61 19 24 14 28 14 53 -2
25 -16 28 -16 45 -1 14 13 47 17 150 22 123 5 135 7 182 34 55 33 74 37 86 16
9 -15 99 -37 120 -29 7 3 13 11 13 19 0 22 17 16 23 -7 6 -21 10 -22 79 -16
40 4 114 2 163 -4 50 -6 119 -12 155 -13 124 -4 126 -5 137 -29 12 -27 -3 -57
-25 -49 -9 3 -13 -2 -10 -14 2 -12 13 -20 30 -22 16 -2 30 -11 33 -22 3 -10
12 -21 20 -23 8 -4 11 -14 8 -27 -11 -42 43 -112 83 -108 12 2 27 -2 35 -9 18
-14 58 -19 86 -9 15 5 28 0 49 -19 29 -27 53 -32 72 -13 6 6 26 11 43 10 22 0
45 9 68 27 20 16 54 34 76 41 60 20 122 70 129 105 16 78 -1 141 -45 162 -15
7 -34 32 -48 63 -12 27 -31 55 -42 60 -30 16 -25 67 7 82 22 10 32 9 64 -9 32
-19 42 -21 69 -10 19 7 31 18 31 29 0 10 9 27 20 38 11 11 20 29 20 40 0 11 5
20 11 20 16 0 5 25 -12 26 -8 1 -18 3 -24 4 -5 2 -21 3 -35 4 -18 1 -26 7 -28
23 -2 12 -17 34 -33 48 -17 13 -28 29 -25 34 3 5 -3 7 -14 4 -14 -4 -20 0 -20
10 0 20 -20 27 -43 15 -15 -8 -28 -3 -57 21 -42 33 -94 56 -154 66 -26 4 -50
19 -77 46 -21 21 -44 39 -52 39 -7 0 -23 14 -35 30 -13 17 -31 30 -41 30 -24
0 -46 26 -61 73 -9 28 -17 37 -35 37 -12 0 -28 7 -35 15 -14 17 -50 20 -50 5
0 -5 -5 -10 -11 -10 -6 0 -8 13 -5 30 3 21 0 30 -10 30 -8 0 -14 -6 -14 -14z"/>
<path d="M8673 9691 c-6 -23 -5 -23 -80 -25 -53 -1 -76 -12 -56 -24 8 -5 11
-24 9 -47 -3 -35 -7 -40 -28 -40 -14 -1 -37 -9 -51 -18 -35 -23 -52 -21 -69 5
l-14 21 -20 -27 c-53 -75 -81 -97 -133 -103 -55 -6 -82 -26 -63 -45 8 -8 5
-17 -13 -34 -14 -13 -25 -26 -25 -29 0 -11 38 -4 49 9 6 7 29 16 50 20 32 5
42 12 55 41 14 29 21 34 40 29 16 -4 32 3 55 21 25 22 42 27 81 27 28 0 53 4
56 9 3 5 18 9 33 9 15 0 31 4 37 10 18 18 133 28 152 14 9 -7 29 -14 45 -14
15 0 27 -4 27 -10 0 -15 76 -50 109 -50 16 0 33 -5 37 -11 10 -17 149 -4 179
15 13 9 33 16 44 16 11 0 25 9 31 20 16 30 -7 34 -113 20 -88 -12 -94 -12
-144 10 -29 12 -53 26 -53 31 0 4 -10 9 -21 11 -13 2 -29 18 -40 38 -17 32
-52 60 -132 105 -27 16 -29 15 -34 -4z"/>
<path d="M7891 9255 c-8 -23 -30 -54 -52 -73 -44 -38 -49 -59 -16 -64 15 -2
23 -11 25 -28 4 -29 21 -52 32 -45 4 3 11 20 14 39 5 25 17 41 49 62 23 16 44
32 45 37 2 4 12 7 21 7 19 0 77 48 68 56 -6 6 -57 -17 -57 -27 0 -4 -20 -7
-44 -7 -45 0 -60 13 -68 63 -3 15 -8 9 -17 -20z"/>
<path d="M10558 9123 c-22 -3 -28 -10 -28 -30 0 -20 -3 -24 -17 -18 -10 4 -28
10 -41 12 -17 4 -21 2 -16 -10 3 -9 1 -24 -5 -35 -15 -29 4 -87 42 -122 18
-16 37 -30 44 -30 6 0 13 -6 16 -12 3 -10 9 -10 25 -1 13 8 23 9 27 3 8 -13
72 -13 80 0 6 9 -20 53 -59 97 -19 22 -19 23 -1 44 19 20 19 21 -4 65 -13 24
-27 43 -30 43 -3 -1 -18 -4 -33 -6z"/>
<path d="M8956 8379 c-32 -5 -61 -10 -63 -12 -2 -2 0 -18 3 -34 6 -29 10 -31
63 -38 64 -8 74 -12 65 -27 -4 -5 -8 -32 -10 -59 -2 -27 -5 -55 -7 -61 -1 -7
6 -14 16 -16 12 -2 17 3 17 17 0 11 9 25 20 31 11 6 27 24 35 40 9 17 24 30
34 30 10 0 26 9 35 19 10 11 25 17 37 14 10 -3 35 3 56 12 34 16 37 16 49 1 7
-10 15 -13 18 -8 9 15 -6 52 -21 52 -8 0 -28 8 -46 17 -21 11 -59 18 -109 19
-42 1 -89 4 -105 7 -15 3 -55 1 -87 -4z"/>
</g>
</svg>
